<svg width="1178" height="64" viewBox="0 0 1178 64" fill="none" xmlns="http://www.w3.org/2000/svg">
<g filter="url(#filter0_d_5_253)">
<rect x="4" width="160" height="56" rx="28" fill="#894189"/>
<path d="M4 28C4 12.536 16.536 0 32 0H49.2619C54.9006 0 58.7697 5.67705 56.708 10.9252L40.9682 50.99C39.7808 54.0124 36.8645 56 33.6172 56H32C16.536 56 4 43.464 4 28Z" fill="white" fill-opacity="0.07"/>
<path d="M40.6175 35V20.4545H42.8121V33.1108H49.4031V35H40.6175ZM51.7362 35V24.0909H53.8597V35H51.7362ZM52.8086 22.4077C52.4393 22.4077 52.122 22.2846 51.8569 22.0384C51.5965 21.7874 51.4663 21.4891 51.4663 21.1435C51.4663 20.7931 51.5965 20.4948 51.8569 20.2486C52.122 19.9976 52.4393 19.8722 52.8086 19.8722C53.1779 19.8722 53.4928 19.9976 53.7532 20.2486C54.0183 20.4948 54.1509 20.7931 54.1509 21.1435C54.1509 21.4891 54.0183 21.7874 53.7532 22.0384C53.4928 22.2846 53.1779 22.4077 52.8086 22.4077ZM61.9084 24.0909V25.7955H55.7436V24.0909H61.9084ZM57.4339 35V22.8267C57.4339 22.1449 57.5831 21.5791 57.8814 21.1293C58.1797 20.6747 58.575 20.3362 59.0675 20.1136C59.5599 19.8864 60.0949 19.7727 60.6726 19.7727C61.0987 19.7727 61.4633 19.8082 61.7663 19.8793C62.0694 19.9455 62.2943 20.0071 62.4411 20.0639L61.9439 21.7827C61.8445 21.7543 61.7166 21.7211 61.5604 21.6832C61.4041 21.6406 61.2147 21.6193 60.9922 21.6193C60.4761 21.6193 60.1068 21.7472 59.8842 22.0028C59.6664 22.2585 59.5575 22.6278 59.5575 23.1108V35H57.4339ZM68.3714 35.2202C67.2966 35.2202 66.371 34.9905 65.5945 34.5312C64.8227 34.0672 64.2261 33.4162 63.8047 32.5781C63.388 31.7353 63.1797 30.7481 63.1797 29.6165C63.1797 28.4991 63.388 27.5142 63.8047 26.6619C64.2261 25.8097 64.8132 25.1444 65.5661 24.6662C66.3236 24.188 67.209 23.9489 68.2223 23.9489C68.8378 23.9489 69.4344 24.0507 70.0121 24.2543C70.5897 24.4579 71.1082 24.7775 71.5675 25.2131C72.0268 25.6487 72.389 26.2145 72.6541 26.9105C72.9193 27.6018 73.0518 28.4422 73.0518 29.4318V30.1847H64.38V28.5938H70.9709C70.9709 28.035 70.8572 27.5402 70.63 27.1094C70.4027 26.6738 70.0831 26.3305 69.6712 26.0795C69.264 25.8286 68.7857 25.7031 68.2365 25.7031C67.6399 25.7031 67.1191 25.8499 66.674 26.1435C66.2337 26.4323 65.8928 26.8111 65.6513 27.2798C65.4145 27.7438 65.2962 28.2481 65.2962 28.7926V30.0355C65.2962 30.7647 65.424 31.3849 65.6797 31.8963C65.9401 32.4077 66.3023 32.7983 66.7663 33.0682C67.2304 33.3333 67.7725 33.4659 68.3928 33.4659C68.7952 33.4659 69.1622 33.4091 69.4936 33.2955C69.825 33.1771 70.1115 33.0019 70.353 32.7699C70.5945 32.5379 70.7791 32.2514 70.907 31.9105L72.9169 32.2727C72.7559 32.8646 72.4671 33.383 72.0504 33.8281C71.6385 34.2685 71.12 34.6117 70.495 34.858C69.8748 35.0994 69.1669 35.2202 68.3714 35.2202Z" fill="white"/>
<path d="M92.5858 37.8951L92.5777 37.8916L92.552 37.8776C92.4018 37.795 92.2529 37.7102 92.1052 37.6232C90.3293 36.568 88.6697 35.3284 87.1538 33.9249C84.4693 31.4201 81.625 27.7031 81.625 23.1251C81.625 19.7091 84.4997 17.0001 87.9693 17.0001C88.9339 16.9954 89.8871 17.2081 90.758 17.6226C91.629 18.0371 92.3953 18.6426 93 19.3941C93.6048 18.6424 94.3713 18.0369 95.2425 17.6224C96.1137 17.2079 97.0671 16.9952 98.0318 17.0001C101.5 17.0001 104.375 19.7091 104.375 23.1251C104.375 27.7042 101.531 31.4212 98.8462 33.9237C97.3304 35.3272 95.6707 36.5669 93.8948 37.6221C93.7471 37.7094 93.5982 37.7946 93.448 37.8776L93.4223 37.8916L93.4142 37.8962L93.4107 37.8974C93.2842 37.9644 93.1432 37.9995 93 37.9995C92.8568 37.9995 92.7158 37.9644 92.5893 37.8974L92.5858 37.8951Z" fill="white"/>
<path d="M102.893 35.9668L106.083 29.7335H103.883V25.7001L100.583 31.9335H102.893V35.9668ZM103.333 38.1668C102.319 38.1668 101.366 37.9743 100.473 37.5893C99.5811 37.2043 98.805 36.6818 98.145 36.0218C97.485 35.3618 96.9625 34.5857 96.5775 33.6935C96.1925 32.8012 96 31.8479 96 30.8335C96 29.819 96.1925 28.8657 96.5775 27.9735C96.9625 27.0812 97.485 26.3051 98.145 25.6451C98.805 24.9851 99.5811 24.4626 100.473 24.0776C101.366 23.6926 102.319 23.5001 103.333 23.5001C104.348 23.5001 105.301 23.6926 106.193 24.0776C107.086 24.4626 107.862 24.9851 108.522 25.6451C109.182 26.3051 109.704 27.0812 110.089 27.9735C110.474 28.8657 110.667 29.819 110.667 30.8335C110.667 31.8479 110.474 32.8012 110.089 33.6935C109.704 34.5857 109.182 35.3618 108.522 36.0218C107.862 36.6818 107.086 37.2043 106.193 37.5893C105.301 37.9743 104.348 38.1668 103.333 38.1668Z" fill="#894189"/>
<path d="M103.267 35.5001L106.167 29.8334H104.167V26.1667L101.167 31.8334H103.267V35.5001ZM103.667 37.5001C102.744 37.5001 101.878 37.3251 101.067 36.9751C100.256 36.6251 99.55 36.1501 98.95 35.5501C98.35 34.9501 97.875 34.2445 97.525 33.4334C97.175 32.6223 97 31.7556 97 30.8334C97 29.9112 97.175 29.0445 97.525 28.2334C97.875 27.4223 98.35 26.7167 98.95 26.1167C99.55 25.5167 100.256 25.0417 101.067 24.6917C101.878 24.3417 102.744 24.1667 103.667 24.1667C104.589 24.1667 105.456 24.3417 106.267 24.6917C107.078 25.0417 107.783 25.5167 108.383 26.1167C108.983 26.7167 109.458 27.4223 109.808 28.2334C110.158 29.0445 110.333 29.9112 110.333 30.8334C110.333 31.7556 110.158 32.6223 109.808 33.4334C109.458 34.2445 108.983 34.9501 108.383 35.5501C107.783 36.1501 107.078 36.6251 106.267 36.9751C105.456 37.3251 104.589 37.5001 103.667 37.5001Z" fill="white"/>
<path d="M125.858 20.4545V35H123.656V22.6562H123.571L120.091 24.929V22.8267L123.72 20.4545H125.858Z" fill="white"/>
<rect x="1004" width="170" height="56" rx="28" fill="#360490"/>
<path d="M1046.88 24.2756C1046.81 23.6032 1046.5 23.0824 1045.95 22.7131C1045.4 22.339 1044.71 22.152 1043.87 22.152C1043.28 22.152 1042.76 22.2467 1042.33 22.4361C1041.89 22.6207 1041.55 22.8764 1041.31 23.2031C1041.07 23.5251 1040.95 23.892 1040.95 24.304C1040.95 24.6496 1041.03 24.9479 1041.2 25.1989C1041.36 25.4498 1041.58 25.6605 1041.84 25.831C1042.11 25.9967 1042.4 26.1364 1042.71 26.25C1043.02 26.3589 1043.31 26.4489 1043.6 26.5199L1045.02 26.8892C1045.48 27.0028 1045.96 27.1567 1046.44 27.3509C1046.93 27.545 1047.38 27.8007 1047.8 28.1179C1048.22 28.4351 1048.55 28.8281 1048.81 29.2969C1049.07 29.7656 1049.2 30.3267 1049.2 30.9801C1049.2 31.804 1048.99 32.5355 1048.56 33.1747C1048.14 33.8139 1047.53 34.3182 1046.72 34.6875C1045.92 35.0568 1044.95 35.2415 1043.82 35.2415C1042.73 35.2415 1041.79 35.0687 1040.99 34.723C1040.19 34.3774 1039.57 33.8873 1039.12 33.2528C1038.67 32.6136 1038.42 31.8561 1038.38 30.9801H1040.58C1040.62 31.5057 1040.79 31.9437 1041.09 32.294C1041.39 32.6397 1041.78 32.8977 1042.25 33.0682C1042.72 33.2339 1043.24 33.3168 1043.8 33.3168C1044.42 33.3168 1044.97 33.2197 1045.46 33.0256C1045.94 32.8267 1046.33 32.5521 1046.61 32.2017C1046.89 31.8466 1047.03 31.4323 1047.03 30.9588C1047.03 30.5279 1046.9 30.1752 1046.66 29.9006C1046.42 29.6259 1046.09 29.3987 1045.67 29.2188C1045.26 29.0388 1044.79 28.8802 1044.27 28.7429L1042.55 28.2741C1041.39 27.9569 1040.46 27.4905 1039.78 26.875C1039.11 26.2595 1038.77 25.4451 1038.77 24.4318C1038.77 23.5937 1038.99 22.8622 1039.45 22.2372C1039.9 21.6122 1040.52 21.1269 1041.3 20.7812C1042.07 20.4309 1042.95 20.2557 1043.92 20.2557C1044.91 20.2557 1045.78 20.4285 1046.53 20.7741C1047.29 21.1198 1047.88 21.5956 1048.32 22.2017C1048.76 22.803 1048.98 23.4943 1049 24.2756H1046.88ZM1056.25 35.2202C1055.19 35.2202 1054.28 34.9811 1053.52 34.5028C1052.76 34.0199 1052.18 33.3546 1051.77 32.5071C1051.37 31.6596 1051.16 30.6889 1051.16 29.5952C1051.16 28.4872 1051.37 27.5095 1051.79 26.6619C1052.2 25.8097 1052.79 25.1444 1053.55 24.6662C1054.31 24.188 1055.2 23.9489 1056.23 23.9489C1057.05 23.9489 1057.79 24.1027 1058.44 24.4105C1059.09 24.7135 1059.61 25.1397 1060.01 25.6889C1060.41 26.2382 1060.65 26.8797 1060.73 27.6136H1058.66C1058.55 27.1023 1058.29 26.6619 1057.88 26.2926C1057.48 25.9233 1056.94 25.7386 1056.26 25.7386C1055.67 25.7386 1055.15 25.8949 1054.71 26.2074C1054.27 26.5152 1053.92 26.9555 1053.68 27.5284C1053.43 28.0966 1053.31 28.7689 1053.31 29.5455C1053.31 30.3409 1053.43 31.0275 1053.67 31.6051C1053.91 32.1828 1054.25 32.6302 1054.69 32.9474C1055.14 33.2647 1055.66 33.4233 1056.26 33.4233C1056.66 33.4233 1057.03 33.3499 1057.36 33.2031C1057.69 33.0516 1057.96 32.8362 1058.19 32.5568C1058.41 32.2775 1058.57 31.9413 1058.66 31.5483H1060.73C1060.65 32.2538 1060.42 32.8835 1060.04 33.4375C1059.66 33.9915 1059.14 34.4271 1058.5 34.7443C1057.86 35.0616 1057.11 35.2202 1056.25 35.2202ZM1067.59 35.2202C1066.57 35.2202 1065.68 34.9858 1064.92 34.517C1064.16 34.0483 1063.56 33.3925 1063.14 32.5497C1062.72 31.7069 1062.51 30.7221 1062.51 29.5952C1062.51 28.4635 1062.72 27.474 1063.14 26.6264C1063.56 25.7789 1064.16 25.1207 1064.92 24.652C1065.68 24.1832 1066.57 23.9489 1067.59 23.9489C1068.62 23.9489 1069.51 24.1832 1070.27 24.652C1071.03 25.1207 1071.63 25.7789 1072.05 26.6264C1072.47 27.474 1072.68 28.4635 1072.68 29.5952C1072.68 30.7221 1072.47 31.7069 1072.05 32.5497C1071.63 33.3925 1071.03 34.0483 1070.27 34.517C1069.51 34.9858 1068.62 35.2202 1067.59 35.2202ZM1067.6 33.4375C1068.26 33.4375 1068.81 33.2623 1069.25 32.9119C1069.69 32.5616 1070.01 32.0952 1070.22 31.5128C1070.43 30.9304 1070.54 30.2888 1070.54 29.5881C1070.54 28.892 1070.43 28.2528 1070.22 27.6705C1070.01 27.0833 1069.69 26.6122 1069.25 26.2571C1068.81 25.902 1068.26 25.7244 1067.6 25.7244C1066.93 25.7244 1066.38 25.902 1065.94 26.2571C1065.5 26.6122 1065.18 27.0833 1064.97 27.6705C1064.76 28.2528 1064.65 28.892 1064.65 29.5881C1064.65 30.2888 1064.76 30.9304 1064.97 31.5128C1065.18 32.0952 1065.5 32.5616 1065.94 32.9119C1066.38 33.2623 1066.93 33.4375 1067.6 33.4375ZM1075.05 35V24.0909H1077.1V25.8239H1077.22C1077.42 25.2367 1077.77 24.7751 1078.27 24.4389C1078.77 24.098 1079.35 23.9276 1079.99 23.9276C1080.12 23.9276 1080.28 23.9323 1080.46 23.9418C1080.64 23.9512 1080.78 23.9631 1080.89 23.9773V26.0085C1080.8 25.9848 1080.65 25.9588 1080.43 25.9304C1080.22 25.8973 1080 25.8807 1079.78 25.8807C1079.28 25.8807 1078.83 25.9872 1078.44 26.2003C1078.05 26.4086 1077.74 26.6998 1077.52 27.0739C1077.29 27.4432 1077.17 27.8646 1077.17 28.3381V35H1075.05ZM1087.04 35.2202C1085.96 35.2202 1085.04 34.9905 1084.26 34.5312C1083.49 34.0672 1082.89 33.4162 1082.47 32.5781C1082.05 31.7353 1081.85 30.7481 1081.85 29.6165C1081.85 28.4991 1082.05 27.5142 1082.47 26.6619C1082.89 25.8097 1083.48 25.1444 1084.23 24.6662C1084.99 24.188 1085.88 23.9489 1086.89 23.9489C1087.5 23.9489 1088.1 24.0507 1088.68 24.2543C1089.26 24.4579 1089.77 24.7775 1090.23 25.2131C1090.69 25.6487 1091.05 26.2145 1091.32 26.9105C1091.59 27.6018 1091.72 28.4422 1091.72 29.4318V30.1847H1083.05V28.5938H1089.64C1089.64 28.035 1089.52 27.5402 1089.3 27.1094C1089.07 26.6738 1088.75 26.3305 1088.34 26.0795C1087.93 25.8286 1087.45 25.7031 1086.9 25.7031C1086.31 25.7031 1085.79 25.8499 1085.34 26.1435C1084.9 26.4323 1084.56 26.8111 1084.32 27.2798C1084.08 27.7438 1083.96 28.2481 1083.96 28.7926V30.0355C1083.96 30.7647 1084.09 31.3849 1084.35 31.8963C1084.61 32.4077 1084.97 32.7983 1085.43 33.0682C1085.9 33.3333 1086.44 33.4659 1087.06 33.4659C1087.46 33.4659 1087.83 33.4091 1088.16 33.2955C1088.49 33.1771 1088.78 33.0019 1089.02 32.7699C1089.26 32.5379 1089.45 32.2514 1089.57 31.9105L1091.58 32.2727C1091.42 32.8646 1091.13 33.383 1090.72 33.8281C1090.3 34.2685 1089.79 34.6117 1089.16 34.858C1088.54 35.0994 1087.83 35.2202 1087.04 35.2202Z" fill="white"/>
<path d="M1110.63 34.9945H1112.48V33.6714C1113.37 33.5126 1114.13 33.1686 1114.76 32.6393C1115.4 32.1101 1115.71 31.325 1115.71 30.2842C1115.71 29.5432 1115.5 28.864 1115.08 28.2466C1114.65 27.6291 1113.81 27.091 1112.54 26.6324C1111.48 26.2795 1110.75 25.9708 1110.34 25.7062C1109.94 25.4415 1109.73 25.0799 1109.73 24.6212C1109.73 24.1625 1109.9 23.8009 1110.22 23.5362C1110.55 23.2716 1111.02 23.1393 1111.64 23.1393C1112.2 23.1393 1112.64 23.276 1112.96 23.5495C1113.28 23.8229 1113.51 24.1625 1113.65 24.5683L1115.34 23.8803C1115.15 23.2628 1114.79 22.7247 1114.27 22.266C1113.75 21.8074 1113.17 21.5516 1112.54 21.4986V20.1755H1110.69V21.4986C1109.8 21.6927 1109.12 22.0808 1108.62 22.663C1108.13 23.2452 1107.88 23.8979 1107.88 24.6212C1107.88 25.4504 1108.12 26.1207 1108.61 26.6324C1109.09 27.144 1109.86 27.585 1110.9 27.9555C1112.01 28.3612 1112.78 28.7229 1113.21 29.0404C1113.64 29.358 1113.86 29.7726 1113.86 30.2842C1113.86 30.8664 1113.65 31.2942 1113.24 31.5676C1112.82 31.8411 1112.33 31.9778 1111.74 31.9778C1111.16 31.9778 1110.65 31.7969 1110.2 31.4353C1109.75 31.0736 1109.42 30.5312 1109.2 29.8079L1107.46 30.4959C1107.7 31.3427 1108.09 32.0263 1108.61 32.5467C1109.13 33.0671 1109.8 33.4244 1110.63 33.6185V34.9945ZM1111.59 38.17C1110.12 38.17 1108.74 37.8921 1107.46 37.3364C1106.17 36.7807 1105.05 36.0265 1104.1 35.0739C1103.14 34.1212 1102.39 33.001 1101.83 31.7132C1101.28 30.4253 1101 29.0493 1101 27.585C1101 26.1207 1101.28 24.7447 1101.83 23.4569C1102.39 22.169 1103.14 21.0488 1104.1 20.0961C1105.05 19.1435 1106.17 18.3893 1107.46 17.8336C1108.74 17.2779 1110.12 17 1111.59 17C1113.05 17 1114.43 17.2779 1115.71 17.8336C1117 18.3893 1118.12 19.1435 1119.07 20.0961C1120.03 21.0488 1120.78 22.169 1121.34 23.4569C1121.89 24.7447 1122.17 26.1207 1122.17 27.585C1122.17 29.0493 1121.89 30.4253 1121.34 31.7132C1120.78 33.001 1120.03 34.1212 1119.07 35.0739C1118.12 36.0265 1117 36.7807 1115.71 37.3364C1114.43 37.8921 1113.05 38.17 1111.59 38.17Z" fill="white"/>
<path d="M1137.36 20.4545V35H1135.16V22.6562H1135.07L1131.59 24.929V22.8267L1135.22 20.4545H1137.36Z" fill="white"/>
</g>
<defs>
<filter id="filter0_d_5_253" x="0" y="0" width="1178" height="64" filterUnits="userSpaceOnUse" color-interpolation-filters="sRGB">
<feFlood flood-opacity="0" result="BackgroundImageFix"/>
<feColorMatrix in="SourceAlpha" type="matrix" values="0 0 0 0 0 0 0 0 0 0 0 0 0 0 0 0 0 0 127 0" result="hardAlpha"/>
<feOffset dy="4"/>
<feGaussianBlur stdDeviation="2"/>
<feComposite in2="hardAlpha" operator="out"/>
<feColorMatrix type="matrix" values="0 0 0 0 0 0 0 0 0 0 0 0 0 0 0 0 0 0 0.25 0"/>
<feBlend mode="normal" in2="BackgroundImageFix" result="effect1_dropShadow_5_253"/>
<feBlend mode="normal" in="SourceGraphic" in2="effect1_dropShadow_5_253" result="shape"/>
</filter>
</defs>
</svg>
